<mxfile host="app.diagrams.net" agent="Mozilla/5.0 (Windows NT 10.0; Win64; x64) AppleWebKit/537.36 (KHTML, like Gecko) Chrome/129.0.0.0 Safari/537.36 Edg/129.0.0.0" version="24.7.17">
  <diagram name="Page-1" id="PeBYFsCbYX1sReddKe5b">
    <mxGraphModel dx="1042" dy="615" grid="0" gridSize="10" guides="1" tooltips="1" connect="1" arrows="1" fold="1" page="0" pageScale="1" pageWidth="850" pageHeight="1100" math="0" shadow="0">
      <root>
        <mxCell id="0" />
        <mxCell id="1" parent="0" />
        <mxCell id="6CY_bZhVXpMzID2WbboI-9" value="" style="edgeStyle=none;curved=1;rounded=0;orthogonalLoop=1;jettySize=auto;html=1;fontSize=12;startSize=8;endSize=8;" edge="1" parent="1" source="6CY_bZhVXpMzID2WbboI-4" target="6CY_bZhVXpMzID2WbboI-8">
          <mxGeometry relative="1" as="geometry">
            <Array as="points">
              <mxPoint x="19" y="114" />
            </Array>
          </mxGeometry>
        </mxCell>
        <mxCell id="6CY_bZhVXpMzID2WbboI-4" value="" style="strokeWidth=2;html=1;shape=mxgraph.flowchart.start_1;whiteSpace=wrap;" vertex="1" parent="1">
          <mxGeometry x="194" y="145" width="100" height="60" as="geometry" />
        </mxCell>
        <mxCell id="6CY_bZhVXpMzID2WbboI-8" value="" style="shape=parallelogram;perimeter=parallelogramPerimeter;whiteSpace=wrap;html=1;fixedSize=1;strokeWidth=2;" vertex="1" parent="1">
          <mxGeometry x="6" y="307" width="120" height="60" as="geometry" />
        </mxCell>
      </root>
    </mxGraphModel>
  </diagram>
</mxfile>
